<svg id="Capa_1" data-name="Capa 1" xmlns="http://www.w3.org/2000/svg" xmlns:xlink="http://www.w3.org/1999/xlink" viewBox="0 0 220.96 143.74"><defs><style>.cls-1{fill:#894b12;}.cls-2{font-size:61.64px;fill:#c18e4c;font-family:Texture Road;letter-spacing:3.2px;}.cls-3{letter-spacing:4.8px;}.cls-4{letter-spacing:4px;}.cls-5{clip-path:url(#clip-path);}.cls-6{clip-path:url(#clip-path-2);}</style><clipPath id="clip-path" transform="translate(-317.92 -145.51)"><rect class="cls-1" x="415.27" y="236.94" width="26.25" height="29.06"/></clipPath><clipPath id="clip-path-2" transform="translate(-317.92 -145.51)"><rect class="cls-1" x="413.29" y="227.51" width="29.75" height="48.17" rx="12" ry="12"/></clipPath></defs><title>Sin título-2</title><text class="cls-2" transform="translate(41.5 52.4) scale(1.25 1)">I<tspan x="15.31" y="0">B</tspan><tspan x="38.21" y="0">E</tspan><tspan class="cls-3" x="59.99" y="0">R</tspan><tspan class="cls-4" x="87.13" y="0">A</tspan></text><path class="cls-1" d="M385.75,240.06l31.07-23.92L427.38,208l1-.78,18.17,14v-5.88H458.9c0,0.32.06,0.64,0.06,1,0,4.55,0,9.1,0,13.66a1.46,1.46,0,0,0,.65,1.31c3.58,2.72,7.13,5.47,10.7,8.21l0.74,0.58-5.88,7.64L428.4,219.41l-36.71,28.25c-0.16-.17-0.31-0.31-0.44-0.48l-4.93-6.39a6,6,0,0,0-.57-0.56Q385.75,240.14,385.75,240.06Z" transform="translate(-317.92 -145.51)"/><rect class="cls-1" x="97.35" y="91.44" width="26.25" height="29.06"/><g class="cls-5"><rect class="cls-1" x="95.37" y="82" width="29.75" height="48.17" rx="12" ry="12"/><g class="cls-6"><path class="cls-1" d="M459.48,289.25H400.59V217.72h58.89v71.53Zm-58-69.8L401,287.59l56.42,0.54L457.88,220Z" transform="translate(-317.92 -145.51)"/><path class="cls-1" d="M401.46,219.45L457.88,220l-0.45,68.13L401,287.59Zm0.13,0.14c0,0.13,0,.22,0,0.31q0,4.67-.06,9.35,0,4.16-.06,8.33,0,7.61-.1,15.23,0,4.89-.07,9.79,0,4.38-.06,8.77,0,7.6-.08,15.19c0,0.92,0,.92.76,0.92l6.05,0,8.22,0.09,7.18,0.06,12.53,0.13,8.08,0.08,6.61,0,5.07,0h1.69l0.45-67.84Z" transform="translate(-317.92 -145.51)"/><path class="cls-1" d="M401.59,219.59l56.18,0.54L457.32,288h-1.69l-5.07,0-6.61,0-8.08-.08-12.53-.13-7.18-.06-8.22-.09-6.05,0c-0.76,0-.76,0-0.76-0.92q0-7.6.08-15.19,0-4.38.06-8.77,0-4.89.07-9.79,0.05-7.61.1-15.23,0-4.16.06-8.33,0-4.67.06-9.35C401.57,219.81,401.58,219.73,401.59,219.59Z" transform="translate(-317.92 -145.51)"/></g></g></svg>